HIERARCHY
ROOT joint_Root
{
	OFFSET 0.0 0.0 0.0
	CHANNELS 6 Xposition Yposition Zposition Zrotation Xrotation Yrotation 
	JOINT Hips
	{
		OFFSET 4.5925 91.4895 -427.239
		CHANNELS 6 Xposition Yposition Zposition Zrotation Xrotation Yrotation 
		JOINT Spine
		{
			OFFSET 15.7357 0.0 0.0
			CHANNELS 6 Xposition Yposition Zposition Zrotation Xrotation Yrotation 
			JOINT Chest
			{
				OFFSET 8.98455 -0.406207 0.0
				CHANNELS 6 Xposition Yposition Zposition Zrotation Xrotation Yrotation 
				JOINT Neck
				{
					OFFSET 16.3773 0.0 0.0
					CHANNELS 6 Xposition Yposition Zposition Zrotation Xrotation Yrotation 
					JOINT Head
					{
						OFFSET 6.45672 0.0 0.0
						CHANNELS 6 Xposition Yposition Zposition Zrotation Xrotation Yrotation 
						End Site
						{
							OFFSET 0.0 0.0 0.0
						}
					}
				}
				JOINT Shoulder_L
				{
					OFFSET 12.9942 -0.242716 4.98039
					CHANNELS 6 Xposition Yposition Zposition Zrotation Xrotation Yrotation 
					JOINT UpperArm_L
					{
						OFFSET 5.34809 0.0 0.0
						CHANNELS 6 Xposition Yposition Zposition Zrotation Xrotation Yrotation 
						JOINT LowerArm_L
						{
							OFFSET 24.3286 1.87007e-05 0.0
							CHANNELS 6 Xposition Yposition Zposition Zrotation Xrotation Yrotation 
							JOINT Hand_L
							{
								OFFSET 22.2916 0.0 0.0
								CHANNELS 6 Xposition Yposition Zposition Zrotation Xrotation Yrotation 
								End Site
								{
									OFFSET 0.0 0.0 0.0
								}
							}
						}
					}
				}
				JOINT Shoulder_R
				{
					OFFSET 12.9945 -0.242716 -4.98039
					CHANNELS 6 Xposition Yposition Zposition Zrotation Xrotation Yrotation 
					JOINT UpperArm_R
					{
						OFFSET -5.34813 0.0 0.0
						CHANNELS 6 Xposition Yposition Zposition Zrotation Xrotation Yrotation 
						JOINT LowerArm_R
						{
							OFFSET -24.3289 0.000322201 0.0
							CHANNELS 6 Xposition Yposition Zposition Zrotation Xrotation Yrotation 
							JOINT Hand_R
							{
								OFFSET -22.2915 -0.000108084 0.0
								CHANNELS 6 Xposition Yposition Zposition Zrotation Xrotation Yrotation 
								End Site
								{
									OFFSET 0.0 0.0 0.0
								}
							}
						}
					}
				}
			}
		}
		JOINT UpperLeg_L
		{
			OFFSET -2.19248 -6.46944 0.0
			CHANNELS 6 Xposition Yposition Zposition Zrotation Xrotation Yrotation 
			JOINT LowerLeg_L
			{
				OFFSET 39.0811 0.0 -1.23785e-05
				CHANNELS 6 Xposition Yposition Zposition Zrotation Xrotation Yrotation 
				JOINT Foot_L
				{
					OFFSET 40.9854 0.0 -1.26872e-05
					CHANNELS 6 Xposition Yposition Zposition Zrotation Xrotation Yrotation 
					JOINT Toes_L
					{
						OFFSET 11.7543 0.0 0.0
						CHANNELS 6 Xposition Yposition Zposition Zrotation Xrotation Yrotation 
						End Site
						{
							OFFSET 0.0 0.0 0.0
						}
					}
				}
			}
		}
		JOINT UpperLeg_R
		{
			OFFSET -2.19251 6.46944 0.0
			CHANNELS 6 Xposition Yposition Zposition Zrotation Xrotation Yrotation 
			JOINT LowerLeg_R
			{
				OFFSET -39.0811 -0.00228153 -0.0401928
				CHANNELS 6 Xposition Yposition Zposition Zrotation Xrotation Yrotation 
				JOINT Foot_R
				{
					OFFSET -40.9854 0.0 0.0
					CHANNELS 6 Xposition Yposition Zposition Zrotation Xrotation Yrotation 
					JOINT Toes_R
					{
						OFFSET -11.7543 0.0 0.0
						CHANNELS 6 Xposition Yposition Zposition Zrotation Xrotation Yrotation 
						End Site
						{
							OFFSET 0.0 0.0 0.0
						}
					}
				}
			}
		}
	}
}
MOTION
Frames:	8
Frame Time:	0.0333333
0.000000 0.000000 0.000000 0.000000 0.000000 -0.000000 -1.899010 89.650500 -1.255350 88.306100 -2.263750 13.631700 15.735700 0.000005 -0.000001 87.079100 76.896000 -87.064900 8.984550 -0.406207 -0.000000 18.411500 -1.308580 0.240567 16.377300 -0.000001 -0.000001 2.470680 -4.550610 1.890630 6.456720 -0.000001 -0.000000 -7.056410 -3.158860 0.442727 12.994200 -0.242716 4.980390 -91.270700 6.287950 -78.551100 5.348090 -0.000007 -0.000001 -53.735500 40.213500 -30.051700 24.328600 0.000019 0.000005 7.424360 20.039100 -20.821100 22.291600 -0.000001 0.000005 7.475010 5.275460 0.750093 12.994500 -0.242716 -4.980390 88.722800 10.225900 -82.841800 -5.348130 -0.000001 -0.000004 -59.466500 32.320900 -22.627500 -24.328900 0.000322 -0.000009 3.564430 7.925030 -24.319100 -22.291500 -0.000108 -0.000004 16.404800 5.373680 -2.100580 -2.192480 -6.469440 -0.000000 -172.168000 -11.937000 -0.717282 39.081100 -0.000007 -0.000012 -0.263053 0.344756 37.344600 40.985400 -0.000006 -0.000013 -0.660174 3.641710 -72.460500 11.754300 -0.000000 0.000003 -0.000213 -0.001950 -16.651000 -2.192510 6.469440 -0.000001 174.821000 20.340600 -178.599000 -39.081100 -0.002282 -0.040193 -0.218239 0.308185 35.709400 -40.985400 0.000008 0.000006 4.833320 11.153500 -73.110000 -11.754300 -0.000006 -0.000006 -0.003144 -0.042216 -18.290000
0.000000 0.000000 0.000000 0.000000 0.000000 -0.000000 -1.899870 89.660800 -1.303360 88.314200 -2.282780 13.672600 15.735700 0.000005 -0.000001 87.044400 76.893700 -87.025000 8.984550 -0.406207 -0.000000 18.415400 -1.323890 0.253466 16.377300 -0.000001 -0.000001 2.486120 -4.521640 1.935040 6.456720 -0.000001 -0.000000 -7.079360 -3.115780 0.462992 12.994200 -0.242716 4.980390 -91.260900 6.244030 -78.559500 5.348090 -0.000007 -0.000001 -53.833400 40.250400 -30.000100 24.328600 0.000019 0.000005 7.412590 20.028100 -20.800500 22.291600 -0.000001 0.000005 7.497890 5.275270 0.755333 12.994500 -0.242716 -4.980390 88.714300 10.210000 -82.784000 -5.348130 -0.000001 -0.000004 -59.262900 31.928700 -22.642500 -24.328900 0.000322 -0.000009 3.893950 8.134730 -25.695000 -22.291500 -0.000108 -0.000004 16.682600 5.379320 -2.276970 -2.192480 -6.469440 -0.000000 -172.173000 -11.916300 -0.683479 39.081100 -0.000007 -0.000012 -0.263660 0.346069 37.303200 40.985400 -0.000006 -0.000013 -0.667116 3.628750 -72.412500 11.754300 -0.000000 0.000003 -0.000230 -0.002085 -16.655900 -2.192510 6.469440 -0.000001 174.817000 20.348900 -178.587000 -39.081100 -0.002282 -0.040193 -0.213375 0.301543 35.698200 -40.985400 0.000008 0.000006 4.957280 11.157600 -73.097800 -11.754300 -0.000006 -0.000006 -0.002978 -0.040353 -18.214200
0.000000 0.000000 0.000000 0.000000 0.000000 -0.000000 -1.903000 89.654900 -1.369100 88.312400 -2.342110 13.653700 15.735700 0.000005 -0.000001 87.017500 76.914100 -86.993400 8.984550 -0.406207 -0.000000 18.374200 -1.333520 0.263996 16.377300 -0.000001 -0.000001 2.544850 -4.496370 1.955340 6.456720 -0.000001 -0.000000 -7.137620 -3.080080 0.512518 12.994200 -0.242716 4.980390 -91.249200 6.181570 -78.551900 5.348090 -0.000007 -0.000001 -54.000300 40.186500 -29.911600 24.328600 0.000019 0.000005 7.420260 20.061600 -20.789900 22.291600 -0.000001 0.000005 7.389910 5.272750 0.823804 12.994500 -0.242716 -4.980390 88.708000 10.199200 -82.741100 -5.348130 -0.000001 -0.000004 -59.040500 31.339100 -22.701000 -24.328900 0.000322 -0.000009 4.142940 7.999520 -27.503200 -22.291500 -0.000108 -0.000004 17.045600 5.383490 -2.407940 -2.192480 -6.469440 -0.000000 -172.174000 -11.972000 -0.772414 39.081100 -0.000007 -0.000012 -0.263035 0.344615 37.354100 40.985400 -0.000006 -0.000013 -0.667987 3.596050 -72.387800 11.754300 -0.000000 0.000003 -0.000220 -0.002004 -16.653000 -2.192510 6.469440 -0.000001 174.845000 20.291000 -178.679000 -39.081100 -0.002282 -0.040193 -0.221256 0.312191 35.726100 -40.985400 0.000008 0.000006 4.799830 11.192300 -73.024900 -11.754300 -0.000006 -0.000006 -0.003126 -0.042020 -18.282000
0.000000 0.000000 0.000000 0.000000 0.000000 -0.000000 -1.903930 89.660900 -1.429370 88.313100 -2.409610 13.647400 15.735700 0.000005 -0.000001 86.961800 76.938100 -86.933400 8.984550 -0.406207 -0.000000 18.325000 -1.355680 0.275725 16.377300 -0.000001 -0.000001 2.618400 -4.478230 1.981980 6.456720 -0.000001 -0.000000 -7.171980 -3.059410 0.524691 12.994200 -0.242716 4.980390 -91.245000 6.137950 -78.510600 5.348090 -0.000007 -0.000001 -54.091100 40.205800 -29.855700 24.328600 0.000019 0.000005 7.433610 20.148200 -20.746100 22.291600 -0.000001 0.000005 7.430980 5.274610 0.773358 12.994500 -0.242716 -4.980390 88.696700 10.188400 -82.671100 -5.348130 -0.000001 -0.000004 -58.724700 30.704500 -22.912900 -24.328900 0.000322 -0.000009 4.322560 7.640790 -29.623400 -22.291500 -0.000108 -0.000004 17.591300 5.391600 -2.665910 -2.192480 -6.469440 -0.000000 -172.160000 -12.032200 -0.805867 39.081100 -0.000007 -0.000012 -0.264080 0.346127 37.342600 40.985400 -0.000006 -0.000013 -0.666798 3.603520 -72.341200 11.754300 -0.000000 0.000003 -0.000217 -0.001981 -16.652100 -2.192510 6.469440 -0.000001 174.884000 20.266700 -178.754000 -39.081100 -0.002282 -0.040193 -0.218404 0.308142 35.733400 -40.985400 0.000008 0.000006 4.862690 11.207600 -72.985500 -11.754300 -0.000006 -0.000006 -0.003089 -0.041606 -18.265200
0.000000 0.000000 0.000000 0.000000 0.000000 -0.000000 -1.908170 89.660400 -1.499760 88.307600 -2.496230 13.651500 15.735700 0.000005 -0.000001 86.939900 76.969200 -86.909500 8.984550 -0.406207 -0.000000 18.262400 -1.362250 0.279803 16.377300 -0.000001 -0.000001 2.720790 -4.470330 2.018380 6.456720 -0.000001 -0.000000 -7.190450 -3.054740 0.543665 12.994200 -0.242716 4.980390 -91.224500 6.062320 -78.558000 5.348090 -0.000007 -0.000001 -54.207700 40.218400 -29.731900 24.328600 0.000019 0.000005 7.436040 20.149900 -20.750800 22.291600 -0.000001 0.000005 7.434530 5.272950 0.818270 12.994500 -0.242716 -4.980390 88.694100 10.141300 -82.623200 -5.348130 -0.000001 -0.000004 -58.459800 29.895000 -23.228400 -24.328900 0.000322 -0.000009 4.805970 7.756520 -31.927200 -22.291500 -0.000108 -0.000004 18.295700 5.400890 -2.965570 -2.192480 -6.469440 -0.000000 -172.136000 -12.117700 -0.848802 39.081100 -0.000007 -0.000012 -0.261520 0.342483 37.365900 40.985400 -0.000006 -0.000013 -0.658787 3.618080 -72.307000 11.754300 -0.000000 0.000003 -0.000234 -0.002116 -16.657000 -2.192510 6.469440 -0.000001 174.924000 20.181100 -178.821000 -39.081100 -0.002282 -0.040193 -0.224466 0.316438 35.744600 -40.985400 0.000008 0.000006 4.783830 11.243100 -72.918700 -11.754300 -0.000006 -0.000006 -0.003120 -0.041955 -18.279400
0.000000 0.000000 0.000000 0.000000 0.000000 -0.000000 -1.910570 89.659400 -1.551210 88.303800 -2.573020 13.685000 15.735700 0.000005 -0.000001 86.887700 76.998400 -86.851000 8.984550 -0.406207 -0.000000 18.203100 -1.381990 0.295056 16.377300 -0.000001 -0.000001 2.841000 -4.467240 2.072300 6.456720 -0.000001 -0.000000 -7.225590 -3.045230 0.496616 12.994200 -0.242716 4.980390 -91.214300 6.017450 -78.568800 5.348090 -0.000007 -0.000001 -54.234500 40.252300 -29.684600 24.328600 0.000019 0.000005 7.453820 20.185100 -20.764900 22.291600 -0.000001 0.000005 7.280160 5.271630 0.854057 12.994500 -0.242716 -4.980390 88.701900 10.017800 -82.578400 -5.348130 -0.000001 -0.000004 -58.156400 29.076900 -23.755700 -24.328900 0.000322 -0.000009 5.464010 8.057860 -34.314100 -22.291500 -0.000108 -0.000004 19.216700 5.404280 -3.075730 -2.192480 -6.469440 -0.000000 -172.113000 -12.181600 -0.838347 39.081100 -0.000007 -0.000012 -0.261174 0.341832 37.381800 40.985400 -0.000006 -0.000013 -0.661171 3.597820 -72.290100 11.754300 -0.000000 0.000003 -0.000212 -0.001947 -16.650900 -2.192510 6.469440 -0.000001 174.941000 20.142000 -178.846000 -39.081100 -0.002282 -0.040193 -0.225016 0.316944 35.766700 -40.985400 0.000008 0.000006 4.802820 11.275800 -72.890600 -11.754300 -0.000006 -0.000006 -0.003147 -0.042259 -18.291800
0.000000 0.000000 0.000000 0.000000 0.000000 -0.000000 -1.910290 89.659400 -1.611310 88.296300 -2.653750 13.703200 15.735700 0.000005 -0.000001 86.859300 77.029800 -86.819600 8.984550 -0.406207 -0.000000 18.139700 -1.391190 0.301567 16.377300 -0.000001 -0.000001 2.916690 -4.474170 2.122890 6.456720 -0.000001 -0.000000 -7.242250 -3.079450 0.498828 12.994200 -0.242716 4.980390 -91.190100 5.921900 -78.615700 5.348090 -0.000007 -0.000001 -54.384000 40.207600 -29.616800 24.328600 0.000019 0.000005 7.417530 20.172000 -20.683100 22.291600 -0.000001 0.000005 7.390690 5.272790 0.822715 12.994500 -0.242716 -4.980390 88.717500 9.892120 -82.575200 -5.348130 -0.000001 -0.000004 -57.746400 28.210200 -24.465300 -24.328900 0.000322 -0.000009 6.237160 8.405930 -36.786000 -22.291500 -0.000108 -0.000004 20.206500 5.408780 -3.224040 -2.192480 -6.469440 -0.000000 -172.097000 -12.231200 -0.864901 39.081100 -0.000007 -0.000012 -0.260531 0.340735 37.402500 40.985400 -0.000006 -0.000013 -0.659088 3.583810 -72.259000 11.754300 -0.000000 0.000003 -0.000220 -0.002009 -16.653100 -2.192510 6.469440 -0.000001 174.960000 20.125000 -178.892000 -39.081100 -0.002282 -0.040193 -0.227817 0.320650 35.782100 -40.985400 0.000008 0.000006 4.788900 11.326500 -72.840700 -11.754300 -0.000006 -0.000006 -0.003042 -0.041075 -18.243600
0.000000 0.000000 0.000000 0.000000 0.000000 -0.000000 -1.910770 89.657000 -1.655380 88.311100 -2.699820 13.761200 15.735700 0.000005 -0.000001 86.844000 77.057800 -86.810200 8.984550 -0.406207 -0.000000 18.083300 -1.395640 0.289812 16.377300 -0.000001 -0.000001 3.019210 -4.500840 2.183210 6.456720 -0.000001 -0.000000 -7.287050 -3.111340 0.496589 12.994200 -0.242716 4.980390 -91.167100 5.833370 -78.665300 5.348090 -0.000007 -0.000001 -54.438300 40.207600 -29.623800 24.328600 0.000019 0.000005 7.393500 20.168900 -20.623800 22.291600 -0.000001 0.000005 7.379410 5.275310 0.754351 12.994500 -0.242716 -4.980390 88.735100 9.747210 -82.569500 -5.348130 -0.000001 -0.000004 -57.535800 27.010400 -25.156400 -24.328900 0.000322 -0.000009 7.025020 8.626950 -39.406800 -22.291500 -0.000108 -0.000004 20.782300 5.411070 -3.300590 -2.192480 -6.469440 -0.000000 -172.100000 -12.244600 -0.829306 39.081100 -0.000007 -0.000012 -0.258444 0.337885 37.412400 40.985400 -0.000006 -0.000013 -0.666396 3.557290 -72.242500 11.754300 -0.000000 0.000003 -0.000210 -0.001930 -16.650300 -2.192510 6.469440 -0.000001 174.933000 20.090100 -178.879000 -39.081100 -0.002282 -0.040193 -0.232679 0.327119 35.805200 -40.985400 0.000008 0.000006 4.748980 11.377900 -72.810000 -11.754300 -0.000006 -0.000006 -0.003094 -0.041657 -18.267200
